GRF_file
version=1
nRows=10
nColumns=2
inDegrees=no
range 1 10
endheader
time	force
1	-0.453534800860787
2	1.60084644756386
3	1.70243226082866
4	0.307951779169732
5	-0.63787281367404
6	1.31642172652922
7	-0.0350547124600938
8	1.54593762696328
9	-0.545681849643548
10	0.230369402027694
